<?xml version="1.0" encoding="utf-8"?>
<!-- Generator: Adobe Illustrator 16.0.0, SVG Export Plug-In . SVG Version: 6.00 Build 0)  -->
<!DOCTYPE svg PUBLIC "-//W3C//DTD SVG 1.1//EN" "http://www.w3.org/Graphics/SVG/1.1/DTD/svg11.dtd">
<svg version="1.1" id="Layer_1" xmlns="http://www.w3.org/2000/svg" xmlns:xlink="http://www.w3.org/1999/xlink" x="0px" y="0px"
	 width="566.929px" height="266.598px" viewBox="0 0 566.929 266.598" enable-background="new 0 0 566.929 266.598"
	 xml:space="preserve">
<rect x="75.838" y="89.498" fill="#00A76D" width="66.589" height="56.739"/>
<polygon fill="#77787B" points="262.386,108.708 262.386,121.248 228.342,121.248 228.342,75.704 243.415,75.704 243.415,108.708 
	"/>
<path fill="#77787B" d="M280.188,114.815l-2.338,6.433h-15.464l19.233-45.544h15.462l18.516,45.544h-16.048l-2.273-6.433H280.188z
	 M288.895,90.712l-4.809,13.318h9.486L288.895,90.712z"/>
<polygon fill="#77787B" points="333.271,87.138 333.271,95 353.476,95 353.476,106.434 333.271,106.434 333.271,121.247 
	318.197,121.247 318.197,75.704 354.839,75.704 354.839,87.138 "/>
<path fill="#77787B" d="M369.76,114.815l-2.34,6.433h-15.462l19.23-45.544h15.462l18.518,45.544H389.12l-2.274-6.433H369.76z
	 M378.465,90.712l-4.807,13.318h9.485L378.465,90.712z"/>
<g>
	<defs>
		<rect id="SVGID_1_" width="566.929" height="266.598"/>
	</defs>
	<clipPath id="SVGID_2_">
		<use xlink:href="#SVGID_1_"  overflow="visible"/>
	</clipPath>
	<path clip-path="url(#SVGID_2_)" fill="#77787B" d="M428.493,109.422h-5.653v11.825h-15.073V75.704h22.025
		c12.344,0,19.426,5.912,19.426,16.307c0,6.626-2.534,11.564-7.213,14.423l8.967,14.813H433.95L428.493,109.422z M429.792,97.988
		c3.248,0,5.132-2.013,5.132-5.522c0-3.378-1.884-5.328-5.132-5.328h-6.952v10.85H429.792z"/>
	<path clip-path="url(#SVGID_2_)" fill="#77787B" d="M497.23,97.273v18.777c-5.068,3.377-13.449,5.847-19.945,5.847
		c-14.294,0-24.688-9.876-24.688-23.389c0-13.448,10.784-23.258,25.662-23.258c7.08,0,14.813,2.729,19.686,7.016l-8.512,10.33
		c-3.054-2.924-7.472-4.807-11.239-4.807c-5.847,0-10.135,4.547-10.135,10.719c0,6.302,4.353,10.85,10.264,10.85
		c1.562,0,3.769-0.584,5.979-1.494V97.273H497.23z"/>
	<polygon clip-path="url(#SVGID_2_)" fill="#77787B" points="517.893,87.138 517.893,92.725 539.201,92.725 539.201,104.159 
		517.893,104.159 517.893,109.813 541.93,109.813 541.93,121.247 502.819,121.247 502.819,75.704 541.346,75.704 541.346,87.138 	
		"/>
	<polygon clip-path="url(#SVGID_2_)" fill="#00A76D" points="247.833,163.671 243.415,168.609 243.415,179.331 228.341,179.331 
		228.341,133.787 243.415,133.787 243.415,149.574 256.993,133.787 274.339,133.787 258.097,152.107 275.314,179.331 
		257.318,179.331 	"/>
	<path clip-path="url(#SVGID_2_)" fill="#00A76D" d="M323.264,160.034c0,12.085-8.512,19.945-21.7,19.945
		c-13.253,0-22.024-7.86-22.024-19.945v-26.248h15.073v26.248c0,4.483,3.247,7.406,7.017,7.406c3.703,0,6.562-2.859,6.562-7.406
		v-26.248h15.073V160.034z"/>
	<path clip-path="url(#SVGID_2_)" fill="#00A76D" d="M372.382,141.648l-8.707,10.331c-2.729-3.705-6.822-6.108-10.33-6.108
		c-5.457,0-9.421,4.354-9.421,10.396c0,6.106,3.964,10.524,9.421,10.524c3.248,0,7.341-2.013,10.33-5.197l8.707,9.291
		c-5.068,5.522-12.8,9.095-19.817,9.095c-13.968,0-24.103-9.938-24.103-23.52c0-13.382,10.396-23.127,24.688-23.127
		C360.102,133.332,367.702,136.58,372.382,141.648 M358.875,130.928H347.74l3.559-7.249l14.629-0.02L358.875,130.928z"/>
	<polygon clip-path="url(#SVGID_2_)" fill="#00A76D" points="392.132,145.22 392.132,150.81 413.44,150.81 413.44,162.242 
		392.132,162.242 392.132,167.896 416.17,167.896 416.17,179.33 377.059,179.33 377.059,133.787 415.586,133.787 415.586,145.22 	
		"/>
	<path clip-path="url(#SVGID_2_)" fill="#77787B" d="M179.59,180.75H39.282V61.623l70.361-34.157l54.615,26.159v-29.55h15.332
		v36.894l27.258,13.055v106.417h-15.331V83.68l-11.927-5.713V180.75z M54.613,165.421h109.645V70.624l-54.571-26.139L54.613,71.222
		V165.421z"/>
	<polygon clip-path="url(#SVGID_2_)" fill="#58595B" points="40.358,209.211 43.132,209.211 43.132,219.179 53.131,209.211 
		56.648,209.211 56.648,209.373 45.809,220.083 57.616,231.598 57.616,231.792 54.131,231.792 43.132,221.179 43.132,231.792 
		40.358,231.792 	"/>
	<path clip-path="url(#SVGID_2_)" fill="#58595B" d="M88.228,220.566c-0.032,5.902-3.71,11.677-11.451,11.677
		c-7.742,0-11.484-5.741-11.484-11.677c0-6.549,4.387-11.741,11.516-11.741C84.454,208.857,88.26,214.597,88.228,220.566
		 M76.809,211.405c-5.742,0-8.71,4.226-8.71,9.161c0,4.581,2.774,9.031,8.71,9.031c5.935,0,8.612-4.581,8.612-9.031
		C85.454,215.986,82.711,211.468,76.809,211.405"/>
	<polygon clip-path="url(#SVGID_2_)" fill="#58595B" points="102.356,209.211 116.194,226.501 116.194,209.211 118.968,209.211 
		118.968,231.792 117.033,231.792 103.163,214.565 103.163,231.792 100.388,231.792 100.388,209.211 	"/>
	<path clip-path="url(#SVGID_2_)" fill="#58595B" d="M142.936,232.146c-7.968,0-11.741-5.517-11.773-11.517
		c-0.065-5.967,3.837-11.772,11.773-11.772c3,0,5.968,1.129,8.258,3.387l-1.936,1.806c-1.742-1.71-4.032-2.516-6.322-2.516
		c-6.064,0-9,4.387-8.968,9.064c0.065,4.581,2.871,8.87,8.968,8.87c2.29,0,4.71-0.902,6.419-2.612l1.968,1.936
		C149.033,231.048,146.033,232.146,142.936,232.146"/>
	<polygon clip-path="url(#SVGID_2_)" fill="#58595B" points="163.032,209.211 178.902,209.211 178.902,211.792 165.806,211.792 
		165.806,218.856 178.354,218.856 178.354,221.469 165.806,221.469 165.806,229.113 179.419,229.113 179.419,231.792 
		163.032,231.792 	"/>
	<path clip-path="url(#SVGID_2_)" fill="#58595B" d="M194.386,231.792h-2.775v-22.58h10.258c10.387,0,10.387,15.258,0,15.29h-7.483
		V231.792z M201.869,211.825h-7.483v10.063h7.483C208.514,221.887,208.514,211.825,201.869,211.825"/>
	<polygon clip-path="url(#SVGID_2_)" fill="#58595B" points="218.804,211.728 218.804,209.21 236.997,209.21 236.997,211.728 
		229.288,211.728 229.288,231.791 226.513,231.791 226.513,211.728 	"/>
	<path clip-path="url(#SVGID_2_)" fill="#58595B" d="M278.318,209.211v1.225l-13.387,18.646h13.387v2.71h-17.354v-1.517
		l13.129-18.45h-12.452v-2.613H278.318z M264.447,202.244h2.807l2.806,2.581l2.904-2.581h2.709v0.227l-4.774,4.322h-1.71
		l-4.742-4.322V202.244z"/>
	<rect x="290.157" y="209.211" clip-path="url(#SVGID_2_)" fill="#58595B" width="2.807" height="22.58"/>
	<polygon clip-path="url(#SVGID_2_)" fill="#58595B" points="307.318,209.211 315.027,228.501 322.801,209.211 325.898,209.211 
		316.576,231.856 313.544,231.856 304.189,209.211 	"/>
	<path clip-path="url(#SVGID_2_)" fill="#58595B" d="M357.801,220.566c-0.032,5.902-3.71,11.677-11.451,11.677
		c-7.742,0-11.484-5.741-11.484-11.677c0-6.549,4.388-11.741,11.517-11.741C354.026,208.857,357.832,214.597,357.801,220.566
		 M346.382,211.405c-5.742,0-8.71,4.226-8.71,9.161c0,4.581,2.773,9.031,8.71,9.031c5.935,0,8.611-4.581,8.611-9.031
		C355.026,215.986,352.283,211.468,346.382,211.405"/>
	<polygon clip-path="url(#SVGID_2_)" fill="#58595B" points="366.704,211.728 366.704,209.21 384.896,209.21 384.896,211.728 
		377.187,211.728 377.187,231.791 374.413,231.791 374.413,211.728 	"/>
	<path clip-path="url(#SVGID_2_)" fill="#58595B" d="M404.767,209.211l10.129,22.58h-3.032l-2.227-4.969h-12.901l-2.194,4.969
		h-3.063l10.128-22.58H404.767z M403.187,212.05l-5.354,12.192h10.708L403.187,212.05z"/>
</g>
</svg>
